<svg width="12" height="12" viewBox="0 0 12 12" fill="none" xmlns="http://www.w3.org/2000/svg">
<g id="bx:bxs-server">
<path id="Vector" d="M9.88801 1.84851H2.3708C2.12159 1.84851 1.88259 1.94751 1.70637 2.12373C1.53015 2.29995 1.43115 2.53895 1.43115 2.78816V4.66746C1.43115 4.91668 1.53015 5.15568 1.70637 5.3319C1.88259 5.50812 2.12159 5.60712 2.3708 5.60712H9.88801C10.1372 5.60712 10.3762 5.50812 10.5524 5.3319C10.7287 5.15568 10.8277 4.91668 10.8277 4.66746V2.78816C10.8277 2.53895 10.7287 2.29995 10.5524 2.12373C10.3762 1.94751 10.1372 1.84851 9.88801 1.84851ZM7.53889 3.72781C7.53889 3.98729 7.32854 4.19764 7.06906 4.19764C6.80958 4.19764 6.59924 3.98729 6.59924 3.72781C6.59924 3.46834 6.80958 3.25799 7.06906 3.25799C7.32854 3.25799 7.53889 3.46834 7.53889 3.72781ZM9.41819 3.72781C9.41819 3.98729 9.20784 4.19764 8.94836 4.19764C8.68889 4.19764 8.47854 3.98729 8.47854 3.72781C8.47854 3.46834 8.68889 3.25799 8.94836 3.25799C9.20784 3.25799 9.41819 3.46834 9.41819 3.72781ZM9.88801 6.54677H2.3708C2.12159 6.54677 1.88259 6.64577 1.70637 6.82198C1.53015 6.9982 1.43115 7.23721 1.43115 7.48642V9.36572C1.43115 9.61493 1.53015 9.85394 1.70637 10.0302C1.88259 10.2064 2.12159 10.3054 2.3708 10.3054H9.88801C10.1372 10.3054 10.3762 10.2064 10.5524 10.0302C10.7287 9.85394 10.8277 9.61493 10.8277 9.36572V7.48642C10.8277 7.23721 10.7287 6.9982 10.5524 6.82198C10.3762 6.64577 10.1372 6.54677 9.88801 6.54677ZM7.53889 8.42607C7.53889 8.68555 7.32854 8.8959 7.06906 8.8959C6.80958 8.8959 6.59924 8.68555 6.59924 8.42607C6.59924 8.16659 6.80958 7.95624 7.06906 7.95624C7.32854 7.95624 7.53889 8.16659 7.53889 8.42607ZM9.41819 8.42607C9.41819 8.68555 9.20784 8.8959 8.94836 8.8959C8.68889 8.8959 8.47854 8.68555 8.47854 8.42607C8.47854 8.16659 8.68889 7.95624 8.94836 7.95624C9.20784 7.95624 9.41819 8.16659 9.41819 8.42607Z" fill="#F53838"/>
</g>
</svg>
