<svg width="12" height="12" viewBox="0 0 12 12" fill="none" xmlns="http://www.w3.org/2000/svg">
<g id="gridicons:location">
<path id="Vector" d="M9.49443 4.66749C9.49443 4.2356 9.40936 3.80794 9.24409 3.40893C9.07881 3.00991 8.83656 2.64736 8.53117 2.34197C8.22578 2.03658 7.86322 1.79433 7.46421 1.62905C7.0652 1.46377 6.63754 1.37871 6.20565 1.37871C5.77376 1.37871 5.3461 1.46377 4.94709 1.62905C4.54807 1.79433 4.18552 2.03658 3.88013 2.34197C3.57474 2.64736 3.33249 3.00991 3.16721 3.40893C3.00194 3.80794 2.91687 4.2356 2.91687 4.66749C2.91687 5.31914 3.1095 5.92521 3.43603 6.43638H3.43227C4.54106 8.17239 6.20565 10.7752 6.20565 10.7752L8.97903 6.43638H8.97574C9.31421 5.90847 9.49422 5.29458 9.49443 4.66749ZM6.20565 6.07696C5.83183 6.07696 5.47333 5.92847 5.209 5.66414C4.94467 5.39981 4.79617 5.0413 4.79617 4.66749C4.79617 4.29367 4.94467 3.93517 5.209 3.67084C5.47333 3.40651 5.83183 3.25801 6.20565 3.25801C6.57947 3.25801 6.93797 3.40651 7.2023 3.67084C7.46663 3.93517 7.61513 4.29367 7.61513 4.66749C7.61513 5.0413 7.46663 5.39981 7.2023 5.66414C6.93797 5.92847 6.57947 6.07696 6.20565 6.07696Z" fill="#F53838"/>
</g>
</svg>
