<svg width="12" height="13" viewBox="0 0 12 13" fill="none" xmlns="http://www.w3.org/2000/svg">
<g id="bx:bxs-check-circle" clip-path="url(#clip0_643_2338)">
<path id="Vector" d="M5.68501 1.84768C3.09439 1.84768 0.986755 3.95532 0.986755 6.54594C0.986755 9.13656 3.09439 11.2442 5.68501 11.2442C8.27563 11.2442 10.3833 9.13656 10.3833 6.54594C10.3833 3.95532 8.27563 1.84768 5.68501 1.84768ZM4.74583 8.61928L3.33375 7.21024C3.15016 7.02705 3.14979 6.72973 3.33292 6.54609C3.51616 6.36232 3.8137 6.36198 3.99736 6.54533L4.74489 7.29155L6.89998 5.13646C7.08343 4.95301 7.38086 4.95301 7.56431 5.13646C7.74777 5.31991 7.74777 5.61734 7.56431 5.8008L4.74583 8.61928Z" fill="#2FAB73"/>
</g>
<defs>
<clipPath id="clip0_643_2338">
<rect width="11.2758" height="11.2758" fill="white" transform="translate(0.0467529 0.908081)"/>
</clipPath>
</defs>
</svg>
