<svg width="12" height="12" viewBox="0 0 12 12" fill="none" xmlns="http://www.w3.org/2000/svg">
<g id="jam:check">
<path id="Vector" d="M5.01556 8.20195C4.95388 8.20207 4.89279 8.19002 4.83579 8.16648C4.77879 8.14293 4.727 8.10837 4.68339 8.06476L2.69039 6.07129C2.64549 6.02798 2.60966 5.97616 2.585 5.91886C2.56033 5.86156 2.54733 5.79992 2.54674 5.73753C2.54616 5.67515 2.558 5.61328 2.58158 5.55552C2.60517 5.49777 2.64001 5.44528 2.6841 5.40114C2.72818 5.357 2.78061 5.32207 2.83833 5.29841C2.89605 5.27475 2.95791 5.26281 3.02029 5.26331C3.08268 5.26381 3.14434 5.27673 3.20167 5.30131C3.25901 5.32589 3.31088 5.36164 3.35425 5.40648L5.01509 7.06732L8.00553 4.07782C8.09362 3.98966 8.21313 3.94011 8.33776 3.94006C8.46239 3.94002 8.58194 3.98949 8.67009 4.07758C8.75825 4.16568 8.80781 4.28519 8.80785 4.40982C8.80789 4.53445 8.75843 4.65399 8.67033 4.74215L5.34772 8.06476C5.30411 8.10837 5.25232 8.14293 5.19532 8.16648C5.13832 8.19002 5.07723 8.20207 5.01556 8.20195Z" fill="#2FAB73"/>
</g>
</svg>
