<svg width="71" height="18" viewBox="0 0 71 18" fill="none" xmlns="http://www.w3.org/2000/svg">
<path d="M22.5745 12.237C22.5119 12.237 22.4586 12.2151 22.4148 12.1712C22.3709 12.1274 22.349 12.0741 22.349 12.0115V5.88496C22.349 5.81605 22.3709 5.7628 22.4148 5.72522C22.4586 5.68137 22.5119 5.65944 22.5745 5.65944H23.4578C23.5267 5.65944 23.58 5.68137 23.6175 5.72522C23.6614 5.7628 23.6833 5.81605 23.6833 5.88496V11.1094H26.662C26.7309 11.1094 26.7873 11.1313 26.8312 11.1752C26.875 11.219 26.8969 11.2723 26.8969 11.3349V12.0115C26.8969 12.0741 26.875 12.1274 26.8312 12.1712C26.7873 12.2151 26.7309 12.237 26.662 12.237H22.5745ZM29.115 12.331C28.7955 12.331 28.5011 12.2683 28.2317 12.143C27.9686 12.0115 27.7588 11.8361 27.6022 11.6168C27.4518 11.3976 27.3767 11.1564 27.3767 10.8933C27.3767 10.4673 27.5489 10.1228 27.8935 9.85968C28.238 9.59658 28.711 9.41805 29.3123 9.32408L30.5997 9.13615V8.93882C30.5997 8.66946 30.5308 8.46587 30.3929 8.32805C30.2551 8.19023 30.0359 8.12133 29.7352 8.12133C29.5285 8.12133 29.3625 8.15891 29.2372 8.23408C29.1119 8.30926 29.0085 8.38756 28.9271 8.469C28.8519 8.54417 28.8018 8.59428 28.7767 8.61934C28.7517 8.69451 28.7047 8.7321 28.6358 8.7321H27.9029C27.8465 8.7321 27.7964 8.71331 27.7525 8.67572C27.7149 8.63813 27.6961 8.58802 27.6961 8.52538C27.7024 8.36877 27.7776 8.19337 27.9217 7.99917C28.072 7.79871 28.3007 7.62644 28.6076 7.48236C28.9146 7.33202 29.2936 7.25685 29.7446 7.25685C30.4838 7.25685 31.0225 7.42285 31.3608 7.75486C31.6991 8.08687 31.8682 8.52224 31.8682 9.06098V12.0115C31.8682 12.0741 31.8463 12.1274 31.8024 12.1712C31.7648 12.2151 31.7116 12.237 31.6427 12.237H30.8628C30.8001 12.237 30.7469 12.2151 30.703 12.1712C30.6592 12.1274 30.6373 12.0741 30.6373 12.0115V11.645C30.4994 11.8455 30.3052 12.0115 30.0547 12.143C29.8041 12.2683 29.4909 12.331 29.115 12.331ZM29.4345 11.4289C29.779 11.4289 30.0609 11.3161 30.2802 11.0906C30.4994 10.8651 30.6091 10.5394 30.6091 10.1134V9.92546L29.6694 10.0758C28.949 10.1886 28.5888 10.4297 28.5888 10.7993C28.5888 10.9998 28.6703 11.1564 28.8331 11.2692C29.0023 11.3757 29.2027 11.4289 29.4345 11.4289ZM34.934 12.331C34.4579 12.331 34.0601 12.2589 33.7406 12.1148C33.4211 11.9708 33.1831 11.8048 33.0265 11.6168C32.8761 11.4226 32.8009 11.2566 32.8009 11.1188C32.8009 11.0562 32.8197 11.0061 32.8573 10.9685C32.9012 10.9309 32.9513 10.9121 33.0077 10.9121H33.7782C33.8283 10.9121 33.8722 10.9371 33.9097 10.9873C33.9411 11.0123 34.01 11.0718 34.1165 11.1658C34.2292 11.2598 34.3545 11.3349 34.4923 11.3913C34.6364 11.4414 34.793 11.4665 34.9621 11.4665C35.2127 11.4665 35.4163 11.4195 35.5729 11.3255C35.7295 11.2253 35.8078 11.0844 35.8078 10.9027C35.8078 10.7774 35.7702 10.6772 35.6951 10.602C35.6262 10.5206 35.4977 10.4485 35.3098 10.3859C35.1282 10.317 34.8525 10.2418 34.4829 10.1604C33.9505 10.0476 33.5558 9.87534 33.299 9.64356C33.0484 9.41178 32.9231 9.10483 32.9231 8.7227C32.9231 8.47213 32.9983 8.23722 33.1486 8.01796C33.299 7.79245 33.5213 7.61078 33.8158 7.47297C34.1165 7.32889 34.4735 7.25685 34.887 7.25685C35.3129 7.25685 35.6794 7.32576 35.9864 7.46357C36.2933 7.59512 36.5251 7.75486 36.6817 7.94279C36.8446 8.13072 36.926 8.29673 36.926 8.44081C36.926 8.49719 36.9041 8.5473 36.8602 8.59115C36.8227 8.62874 36.7757 8.64753 36.7193 8.64753H36.0146C35.9456 8.64753 35.8924 8.62247 35.8548 8.57236C35.811 8.54104 35.7389 8.48466 35.6387 8.40322C35.5447 8.31552 35.4382 8.24661 35.3192 8.1965C35.2002 8.14638 35.0561 8.12133 34.887 8.12133C34.6552 8.12133 34.4767 8.17144 34.3514 8.27167C34.2261 8.3719 34.1634 8.50345 34.1634 8.66632C34.1634 8.77908 34.1916 8.87305 34.248 8.94822C34.3107 9.02339 34.4328 9.09543 34.6145 9.16434C34.7961 9.22698 35.0686 9.29276 35.432 9.36167C36.5596 9.58092 37.1233 10.0727 37.1233 10.8369C37.1233 11.2817 36.9292 11.6419 36.5408 11.9175C36.1586 12.1931 35.623 12.331 34.934 12.331ZM38.3186 12.237C38.256 12.237 38.2027 12.2151 38.1589 12.1712C38.115 12.1274 38.0931 12.0741 38.0931 12.0115V5.79099C38.0931 5.72208 38.115 5.66884 38.1589 5.63125C38.2027 5.5874 38.256 5.56547 38.3186 5.56547H39.1079C39.1768 5.56547 39.2301 5.5874 39.2677 5.63125C39.3115 5.66884 39.3334 5.72208 39.3334 5.79099V12.0115C39.3334 12.0741 39.3115 12.1274 39.2677 12.1712C39.2301 12.2151 39.1768 12.237 39.1079 12.237H38.3186ZM42.6939 12.331C41.9923 12.331 41.4347 12.1305 41.0213 11.7296C40.6141 11.3287 40.398 10.7586 40.3729 10.0194L40.3635 9.78451C40.3635 9.00147 40.5671 8.38443 40.9743 7.9334C41.3877 7.48236 41.9578 7.25685 42.6845 7.25685C43.4299 7.25685 44.0031 7.48236 44.404 7.9334C44.8112 8.38443 45.0148 8.98581 45.0148 9.73753V9.93485C45.0148 9.9975 44.9929 10.0507 44.949 10.0946C44.9052 10.1384 44.8488 10.1604 44.7799 10.1604H41.6602V10.2355C41.6728 10.5863 41.7667 10.8776 41.9421 11.1094C42.1238 11.3349 42.3712 11.4477 42.6845 11.4477C43.0415 11.4477 43.3328 11.3036 43.5583 11.0155C43.6147 10.9465 43.6586 10.9058 43.6899 10.8933C43.7212 10.8745 43.7745 10.8651 43.8496 10.8651H44.6765C44.7329 10.8651 44.7799 10.8808 44.8175 10.9121C44.8613 10.9434 44.8832 10.9873 44.8832 11.0436C44.8832 11.194 44.7924 11.3725 44.6108 11.5792C44.4353 11.7797 44.1816 11.9551 43.8496 12.1054C43.5176 12.2558 43.1324 12.331 42.6939 12.331ZM43.7181 9.36167V9.34287C43.7181 8.97328 43.6241 8.67885 43.4362 8.4596C43.2545 8.23408 43.0039 8.12133 42.6845 8.12133C42.365 8.12133 42.1144 8.23408 41.9327 8.4596C41.7511 8.67885 41.6602 8.97328 41.6602 9.34287V9.36167H43.7181ZM47.8725 12.331C47.3964 12.331 46.9986 12.2589 46.6792 12.1148C46.3597 11.9708 46.1216 11.8048 45.965 11.6168C45.8147 11.4226 45.7395 11.2566 45.7395 11.1188C45.7395 11.0562 45.7583 11.0061 45.7959 10.9685C45.8397 10.9309 45.8899 10.9121 45.9462 10.9121H46.7167C46.7669 10.9121 46.8107 10.9371 46.8483 10.9873C46.8796 11.0123 46.9485 11.0718 47.055 11.1658C47.1678 11.2598 47.2931 11.3349 47.4309 11.3913C47.575 11.4414 47.7316 11.4665 47.9007 11.4665C48.1513 11.4665 48.3549 11.4195 48.5115 11.3255C48.6681 11.2253 48.7464 11.0844 48.7464 10.9027C48.7464 10.7774 48.7088 10.6772 48.6336 10.602C48.5647 10.5206 48.4363 10.4485 48.2484 10.3859C48.0667 10.317 47.7911 10.2418 47.4215 10.1604C46.889 10.0476 46.4944 9.87534 46.2375 9.64356C45.9869 9.41178 45.8617 9.10483 45.8617 8.7227C45.8617 8.47213 45.9368 8.23722 46.0872 8.01796C46.2375 7.79245 46.4599 7.61078 46.7543 7.47297C47.055 7.32889 47.4121 7.25685 47.8255 7.25685C48.2515 7.25685 48.618 7.32576 48.9249 7.46357C49.2319 7.59512 49.4637 7.75486 49.6203 7.94279C49.7831 8.13072 49.8646 8.29673 49.8646 8.44081C49.8646 8.49719 49.8427 8.5473 49.7988 8.59115C49.7612 8.62874 49.7142 8.64753 49.6579 8.64753H48.9531C48.8842 8.64753 48.831 8.62247 48.7934 8.57236C48.7495 8.54104 48.6775 8.48466 48.5773 8.40322C48.4833 8.31552 48.3768 8.24661 48.2578 8.1965C48.1388 8.14638 47.9947 8.12133 47.8255 8.12133C47.5938 8.12133 47.4152 8.17144 47.2899 8.27167C47.1646 8.3719 47.102 8.50345 47.102 8.66632C47.102 8.77908 47.1302 8.87305 47.1866 8.94822C47.2492 9.02339 47.3714 9.09543 47.553 9.16434C47.7347 9.22698 48.0072 9.29276 48.3705 9.36167C49.4981 9.58092 50.0619 10.0727 50.0619 10.8369C50.0619 11.2817 49.8677 11.6419 49.4793 11.9175C49.0972 12.1931 48.5616 12.331 47.8725 12.331ZM52.9204 12.237C52.8139 12.237 52.7262 12.2119 52.6572 12.1618C52.5946 12.1054 52.5508 12.0365 52.5257 11.9551L50.6276 5.94134L50.6088 5.85677C50.6088 5.80665 50.6276 5.7628 50.6652 5.72522C50.709 5.68137 50.7592 5.65944 50.8155 5.65944H52.0465C52.1404 5.65944 52.2156 5.68763 52.272 5.74401C52.3346 5.79412 52.3754 5.8505 52.3941 5.91315L53.6721 10.1604L54.9594 5.91315C54.9782 5.84424 55.0158 5.78473 55.0722 5.73461C55.1348 5.6845 55.2131 5.65944 55.3071 5.65944H56.538C56.5944 5.65944 56.6414 5.68137 56.679 5.72522C56.7165 5.7628 56.7353 5.80665 56.7353 5.85677C56.7353 5.88809 56.7322 5.91628 56.7259 5.94134L54.8184 11.9551C54.7997 12.0365 54.7558 12.1054 54.6869 12.1618C54.6243 12.2119 54.5397 12.237 54.4332 12.237H52.9204ZM57.8278 12.237C57.7652 12.237 57.7088 12.2151 57.6587 12.1712C57.6148 12.1211 57.5929 12.0647 57.5929 12.0021V5.90375C57.5929 5.83484 57.6148 5.77846 57.6587 5.73461C57.7025 5.6845 57.7589 5.65944 57.8278 5.65944H60.487C61.3014 5.65944 61.9404 5.84424 62.4039 6.21383C62.8675 6.58343 63.0993 7.1253 63.0993 7.83943C63.0993 8.55357 62.8675 9.08917 62.4039 9.44623C61.9404 9.79704 61.3014 9.97244 60.487 9.97244H59.4158V12.0021C59.4158 12.0647 59.3939 12.1211 59.3501 12.1712C59.3062 12.2151 59.2498 12.237 59.1809 12.237H57.8278ZM60.4401 8.62874C60.6969 8.62874 60.8974 8.56296 61.0414 8.43141C61.1918 8.2936 61.267 8.09314 61.267 7.83003C61.267 7.58573 61.198 7.3884 61.0602 7.23805C60.9287 7.08771 60.722 7.01254 60.4401 7.01254H59.3876V8.62874H60.4401ZM64.2053 12.237C64.1427 12.237 64.0863 12.2151 64.0362 12.1712C63.9924 12.1211 63.9704 12.0647 63.9704 12.0021V5.90375C63.9704 5.83484 63.9924 5.77846 64.0362 5.73461C64.0801 5.6845 64.1364 5.65944 64.2053 5.65944H65.2671C65.4112 5.65944 65.5177 5.71895 65.5866 5.83797L67.8042 9.34287V5.90375C67.8042 5.83484 67.8261 5.77846 67.87 5.73461C67.9138 5.6845 67.9702 5.65944 68.0391 5.65944H69.2325C69.3014 5.65944 69.3578 5.6845 69.4016 5.73461C69.4455 5.77846 69.4674 5.83484 69.4674 5.90375V11.9927C69.4674 12.0616 69.4455 12.1211 69.4016 12.1712C69.3578 12.2151 69.3014 12.237 69.2325 12.237H68.1707C68.0266 12.237 67.9201 12.1775 67.8512 12.0585L65.643 8.69451V12.0021C65.643 12.071 65.618 12.1274 65.5678 12.1712C65.524 12.2151 65.4676 12.237 65.3987 12.237H64.2053Z" fill="#0B132A"/>
<path d="M15.1075 6.77546L15.0973 6.76523C15.0965 6.76466 15.0958 6.76389 15.0954 6.76301L8.69595 0.363403L2.29657 6.76284C2.29583 6.76359 2.29468 6.76506 2.29468 6.76506L2.28412 6.77529C1.30556 7.75934 0.684012 9.04225 0.518272 10.4201C0.352533 11.798 0.652116 13.1917 1.3694 14.3798C2.08668 15.5678 3.18049 16.4821 4.47696 16.977C5.77343 17.472 7.19815 17.5194 8.52464 17.1116C8.63626 17.0775 8.75557 17.0775 8.8672 17.1116C10.1936 17.5192 11.6182 17.4718 12.9146 16.9768C14.211 16.4817 15.3047 15.5676 16.0219 14.3796C16.7392 13.1916 17.0388 11.798 16.8731 10.4202C16.7074 9.04242 16.086 7.75951 15.1075 6.77546ZM4.57211 10.9955C4.54095 11.0266 4.51625 11.0636 4.4994 11.1043C4.48254 11.145 4.47387 11.1886 4.47388 11.2326C4.48526 12.3621 4.80446 13.467 5.39712 14.4286C5.41058 14.4504 5.4168 14.476 5.4149 14.5015C5.41299 14.527 5.40305 14.5513 5.38649 14.5709C5.36994 14.5905 5.34762 14.6043 5.32273 14.6104C5.29784 14.6165 5.27166 14.6146 5.24792 14.6049C4.80238 14.4175 4.39762 14.1451 4.05629 13.8029C3.35679 13.1033 2.96355 12.1546 2.96291 11.1653C2.96227 10.1759 3.35431 9.22677 4.05291 8.52629L8.69595 3.88368L13.3388 8.52629C14.0375 9.22669 14.4296 10.1759 14.429 11.1653C14.4284 12.1546 14.0351 13.1033 13.3355 13.8029C12.9942 14.1451 12.5895 14.4175 12.144 14.6049C12.1202 14.6146 12.094 14.6165 12.0691 14.6104C12.0443 14.6043 12.022 14.5904 12.0053 14.5709C11.9888 14.5513 11.9788 14.527 11.9769 14.5014C11.975 14.4759 11.9812 14.4503 11.9947 14.4285C12.5875 13.467 12.9068 12.3621 12.9184 11.2326C12.9184 11.1886 12.9097 11.145 12.8927 11.1042C12.8758 11.0635 12.851 11.0265 12.8197 10.9954L10.6237 8.66604C10.6018 8.64778 10.5743 8.63778 10.5458 8.63778C10.5173 8.63778 10.4897 8.64778 10.4679 8.66604C10.446 8.68422 10.4313 8.70959 10.4262 8.7376C10.4211 8.76561 10.4259 8.79445 10.44 8.81923C11.2929 10.3627 10.5595 12.5797 9.33638 13.8029L9.32993 13.8094C9.16112 13.9764 8.93322 14.07 8.69578 14.0699C8.45831 14.0698 8.23047 13.976 8.06178 13.809L8.05584 13.8029C6.8323 12.5797 6.09925 10.3629 6.9523 8.81957C6.96633 8.79478 6.97122 8.76594 6.96611 8.73793C6.96101 8.70991 6.94625 8.68455 6.92439 8.66637C6.90253 8.64811 6.87498 8.63811 6.84651 8.63811C6.81805 8.63811 6.79048 8.64811 6.76862 8.66637L4.57211 10.9955Z" fill="#F53838"/>
</svg>
