<svg width="69" height="79" viewBox="0 0 69 79" fill="none" xmlns="http://www.w3.org/2000/svg">
<g id="Illustration/Free">
<g id="Group 1287">
<path id="Union" fill-rule="evenodd" clip-rule="evenodd" d="M24.8859 19.5145C25.1945 18.8447 25.5559 18.3243 25.7947 18.05C25.7994 18.6971 25.6997 19.2775 25.5453 19.7819C26.0206 20.0112 26.5145 20.3322 26.9864 20.7752C26.6228 20.7642 25.9953 20.6761 25.2939 20.4476C24.9706 21.1605 24.562 21.6527 24.2941 21.8818C24.3122 21.2819 24.4385 20.7069 24.6158 20.1883C24.1148 19.9663 23.6071 19.6685 23.1546 19.2745C23.5046 19.2335 24.1433 19.2678 24.8859 19.5145Z" fill="url(#paint0_linear_643_2868)"/>
<path id="Union_2" fill-rule="evenodd" clip-rule="evenodd" d="M22.4471 12.8043C22.6525 12.3585 22.8931 12.0121 23.052 11.8295C23.0552 12.2602 22.9888 12.6465 22.886 12.9823C23.2024 13.1349 23.5312 13.3486 23.8453 13.6435C23.6033 13.6362 23.1855 13.5775 22.7187 13.4254C22.5035 13.8999 22.2315 14.2276 22.0532 14.3801C22.0652 13.9808 22.1493 13.598 22.2673 13.2528C21.9338 13.105 21.596 12.9068 21.2947 12.6446C21.5277 12.6173 21.9528 12.6401 22.4471 12.8043Z" fill="url(#paint1_linear_643_2868)"/>
<path id="Union_3" fill-rule="evenodd" clip-rule="evenodd" d="M15.8464 6.13379C16.155 5.46399 16.5164 4.94367 16.7552 4.66933C16.7599 5.31639 16.6602 5.8968 16.5058 6.40125C16.981 6.63049 17.475 6.95151 17.9469 7.39449C17.5832 7.38349 16.9557 7.29541 16.2544 7.06694C15.9311 7.77982 15.5225 8.27203 15.2546 8.50118C15.2727 7.90124 15.3989 7.32626 15.5763 6.8076C15.0753 6.58557 14.5676 6.28784 14.115 5.89385C14.4651 5.85281 15.1038 5.88708 15.8464 6.13379Z" fill="url(#paint2_linear_643_2868)"/>
<path id="Union_4" fill-rule="evenodd" clip-rule="evenodd" d="M14.8006 21.152C15.2546 20.1665 15.7863 19.4009 16.1377 18.9972C16.1446 19.9494 15.9979 20.8034 15.7706 21.5457C16.4696 21.8829 17.1959 22.3551 17.8899 23.0065C17.355 22.9903 16.4322 22.8608 15.4008 22.5249C14.9252 23.5736 14.3241 24.2977 13.9299 24.6348C13.9566 23.7523 14.1423 22.9065 14.4031 22.1435C13.6657 21.8168 12.9185 21.3786 12.2523 20.7987C12.7675 20.7383 13.7075 20.7888 14.8006 21.152Z" fill="url(#paint3_linear_643_2868)"/>
<circle id="Ellipse 199" cx="17.531" cy="14.407" r="0.397721" transform="rotate(21.3865 17.531 14.407)" fill="#2F235A"/>
<circle id="Ellipse 200" cx="27.3787" cy="9.40624" r="0.397721" transform="rotate(21.3865 27.3787 9.40624)" fill="#FE9076"/>
<circle id="Ellipse 201" cx="8.47515" cy="11.5788" r="0.397721" transform="rotate(21.3865 8.47515 11.5788)" fill="#FFA400"/>
<circle id="Ellipse 202" cx="17.0156" cy="27.593" r="0.397721" transform="rotate(21.3865 17.0156 27.593)" fill="#23BB86"/>
<path id="Vector 95" d="M27.077 7.50528C26.69 6.02745 25.2934 2.6476 22.8024 0.950807" stroke="#FE9076" stroke-width="0.346178" stroke-linecap="round"/>
<path id="Vector 96" d="M7.30149 9.97434C6.33869 8.7883 3.67071 6.28713 0.701277 5.77077" stroke="#FFA400" stroke-width="0.346178" stroke-linecap="round"/>
<path id="Vector 97" d="M15.3236 28.171C14.4703 28.4822 12.3224 29.4737 10.5566 30.9505" stroke="#23BB86" stroke-width="0.346178" stroke-linecap="round"/>
</g>
<g id="Group 1288">
<path id="Union_5" fill-rule="evenodd" clip-rule="evenodd" d="M44.5953 19.5145C44.2867 18.8447 43.9253 18.3244 43.6865 18.05C43.6818 18.6971 43.7815 19.2775 43.9359 19.782C43.4606 20.0112 42.9667 20.3322 42.4948 20.7752C42.8584 20.7642 43.486 20.6761 44.1873 20.4476C44.5106 21.1605 44.9192 21.6527 45.1871 21.8819C45.169 21.2819 45.0427 20.707 44.8654 20.1883C45.3664 19.9663 45.8741 19.6685 46.3267 19.2746C45.9766 19.2335 45.3379 19.2678 44.5953 19.5145Z" fill="url(#paint4_linear_643_2868)"/>
<path id="Union_6" fill-rule="evenodd" clip-rule="evenodd" d="M47.0342 12.8041C46.8288 12.3583 46.5882 12.0119 46.4293 11.8293C46.4261 12.26 46.4925 12.6464 46.5953 12.9821C46.2789 13.1347 45.9501 13.3484 45.636 13.6433C45.878 13.636 46.2957 13.5773 46.7626 13.4252C46.9778 13.8998 47.2498 14.2274 47.4281 14.3799C47.4161 13.9806 47.332 13.5979 47.214 13.2526C47.5474 13.1048 47.8853 12.9067 48.1866 12.6444C47.9535 12.6171 47.5285 12.6399 47.0342 12.8041Z" fill="url(#paint5_linear_643_2868)"/>
<path id="Union_7" fill-rule="evenodd" clip-rule="evenodd" d="M53.6358 6.13364C53.3272 5.46383 52.9658 4.94352 52.727 4.66917C52.7223 5.31623 52.822 5.89665 52.9764 6.4011C52.5011 6.63034 52.0072 6.95136 51.5353 7.39434C51.8989 7.38334 52.5264 7.29525 53.2278 7.06679C53.5511 7.77967 53.9597 8.27188 54.2276 8.50103C54.2095 7.90109 54.0832 7.32611 53.9059 6.80745C54.4069 6.58542 54.9146 6.28768 55.3671 5.89369C55.0171 5.85265 54.3784 5.88693 53.6358 6.13364Z" fill="url(#paint6_linear_643_2868)"/>
<path id="Union_8" fill-rule="evenodd" clip-rule="evenodd" d="M54.6815 21.152C54.2275 20.1664 53.6957 19.4008 53.3443 18.9972C53.3375 19.9493 53.4842 20.8034 53.7115 21.5456C53.0125 21.8829 52.2862 22.355 51.5922 23.0065C52.127 22.9903 53.0498 22.8608 54.0813 22.5249C54.5569 23.5736 55.158 24.2976 55.5521 24.6347C55.5255 23.7522 55.3398 22.9064 55.0789 22.1434C55.8164 21.8167 56.5636 21.3786 57.2297 20.7987C56.7145 20.7383 55.7745 20.7887 54.6815 21.152Z" fill="url(#paint7_linear_643_2868)"/>
<circle id="Ellipse 199_2" cx="0.397721" cy="0.397721" r="0.397721" transform="matrix(-0.931142 0.364658 0.364658 0.931142 52.1757 13.8916)" fill="#2F235A"/>
<circle id="Ellipse 200_2" cx="0.397721" cy="0.397721" r="0.397721" transform="matrix(-0.931142 0.364658 0.364658 0.931142 42.3279 8.89084)" fill="#FE9076"/>
<circle id="Ellipse 201_2" cx="0.397721" cy="0.397721" r="0.397721" transform="matrix(-0.931142 0.364658 0.364658 0.931142 61.2315 11.0634)" fill="#FFA400"/>
<circle id="Ellipse 202_2" cx="0.397721" cy="0.397721" r="0.397721" transform="matrix(-0.931142 0.364658 0.364658 0.931142 52.691 27.0776)" fill="#23BB86"/>
<path id="Vector 95_2" d="M42.4048 7.50525C42.7917 6.02742 44.1883 2.64757 46.6793 0.950777" stroke="#FE9076" stroke-width="0.346178" stroke-linecap="round"/>
<path id="Vector 96_2" d="M62.1798 9.97431C63.1426 8.78827 65.8106 6.2871 68.78 5.77074" stroke="#FFA400" stroke-width="0.346178" stroke-linecap="round"/>
<path id="Vector 97_2" d="M54.1582 28.171C55.0114 28.4821 57.1594 29.4737 58.9251 30.9505" stroke="#23BB86" stroke-width="0.346178" stroke-linecap="round"/>
</g>
<g id="Group 1277">
<rect id="Rectangle 320" x="13.3809" y="49.467" width="42.2141" height="29.181" fill="url(#paint8_linear_643_2868)"/>
<g id="Mask Group">
<mask id="mask0_643_2868" style="mask-type:alpha" maskUnits="userSpaceOnUse" x="13" y="49" width="43" height="30">
<rect id="Rectangle 322" x="13.3809" y="49.467" width="42.2141" height="29.181" fill="#C4C4C4"/>
</mask>
<g mask="url(#mask0_643_2868)">
<path id="Rectangle 325" d="M15.3778 48.724L44.1227 48.724L37.6257 60.0051L8.8808 60.0052L15.3778 48.724Z" fill="black" fill-opacity="0.07"/>
<rect id="Rectangle 321" x="42.0877" y="49.467" width="42.2141" height="29.181" fill="url(#paint9_linear_643_2868)"/>
</g>
</g>
<path id="Rectangle 323" d="M13.3434 49.467L42.0882 49.467L36.5356 58.7331L7.79074 58.7331L13.3434 49.467Z" fill="url(#paint10_linear_643_2868)"/>
<g id="Mask Group_2">
<mask id="mask1_643_2868" style="mask-type:alpha" maskUnits="userSpaceOnUse" x="42" y="49" width="14" height="30">
<rect id="Rectangle 326" x="42.0882" y="49.467" width="13.5065" height="29.181" fill="#C4C4C4"/>
</mask>
<g mask="url(#mask1_643_2868)">
<path id="Rectangle 327" d="M53.9503 49.4185L40.4226 49.4185L46.779 60.0867L60.3066 60.0867L53.9503 49.4185Z" fill="black" fill-opacity="0.07"/>
</g>
</g>
<path id="Rectangle 324" d="M55.6158 49.467L42.0882 49.467L47.6408 58.7331L61.1685 58.7331L55.6158 49.467Z" fill="url(#paint11_linear_643_2868)"/>
</g>
<circle id="Ellipse 203" cx="28.345" cy="41.3868" r="3.98921" fill="url(#paint12_linear_643_2868)"/>
<circle id="Ellipse 204" cx="40.7484" cy="36.0543" r="3.85479" fill="url(#paint13_linear_643_2868)"/>
<circle id="Ellipse 205" cx="32.3344" cy="26.2322" r="3.10851" fill="url(#paint14_linear_643_2868)"/>
<circle id="Ellipse 218" cx="42.8631" cy="25.7631" r="0.775212" fill="#FFA800" fill-opacity="0.23"/>
<circle id="Ellipse 219" cx="37.6688" cy="43.3832" r="0.775212" fill="#FFA800" fill-opacity="0.23"/>
<circle id="Ellipse 220" cx="24.9394" cy="31.4243" r="0.775212" fill="#FFA800" fill-opacity="0.23"/>
<path id="Vector 98" d="M55.6942 49.605H13.347L6.84354 9.50638H63.5036L55.6942 49.605Z" fill="url(#paint15_linear_643_2868)"/>
</g>
<defs>
<linearGradient id="paint0_linear_643_2868" x1="25.6776" y1="18.4745" x2="24.2686" y2="22.0724" gradientUnits="userSpaceOnUse">
<stop stop-color="#FFE89E"/>
<stop offset="1" stop-color="#FFBF1A"/>
</linearGradient>
<linearGradient id="paint1_linear_643_2868" x1="22.9742" y1="12.1121" x2="22.0363" y2="14.507" gradientUnits="userSpaceOnUse">
<stop stop-color="#FFE89E"/>
<stop offset="1" stop-color="#FFBF1A"/>
</linearGradient>
<linearGradient id="paint2_linear_643_2868" x1="16.6381" y1="5.09387" x2="15.2291" y2="8.69173" gradientUnits="userSpaceOnUse">
<stop stop-color="#FFE89E"/>
<stop offset="1" stop-color="#FFBF1A"/>
</linearGradient>
<linearGradient id="paint3_linear_643_2868" x1="15.9645" y1="19.6214" x2="13.8915" y2="24.9147" gradientUnits="userSpaceOnUse">
<stop stop-color="#FFE89E"/>
<stop offset="1" stop-color="#FFBF1A"/>
</linearGradient>
<linearGradient id="paint4_linear_643_2868" x1="43.8036" y1="18.4746" x2="45.2126" y2="22.0724" gradientUnits="userSpaceOnUse">
<stop stop-color="#FFE89E"/>
<stop offset="1" stop-color="#FFBF1A"/>
</linearGradient>
<linearGradient id="paint5_linear_643_2868" x1="46.5071" y1="12.1119" x2="47.445" y2="14.5068" gradientUnits="userSpaceOnUse">
<stop stop-color="#FFE89E"/>
<stop offset="1" stop-color="#FFBF1A"/>
</linearGradient>
<linearGradient id="paint6_linear_643_2868" x1="52.8441" y1="5.09371" x2="54.2531" y2="8.69158" gradientUnits="userSpaceOnUse">
<stop stop-color="#FFE89E"/>
<stop offset="1" stop-color="#FFBF1A"/>
</linearGradient>
<linearGradient id="paint7_linear_643_2868" x1="53.5176" y1="19.6214" x2="55.5906" y2="24.9147" gradientUnits="userSpaceOnUse">
<stop stop-color="#FFE89E"/>
<stop offset="1" stop-color="#FFBF1A"/>
</linearGradient>
<linearGradient id="paint8_linear_643_2868" x1="27.4823" y1="44.0644" x2="10.6578" y2="90.4041" gradientUnits="userSpaceOnUse">
<stop stop-color="#FFD481"/>
<stop offset="1" stop-color="#FA620C"/>
</linearGradient>
<linearGradient id="paint9_linear_643_2868" x1="20.5827" y1="47.6161" x2="71.6434" y2="102.181" gradientUnits="userSpaceOnUse">
<stop stop-color="#FFD481"/>
<stop offset="0.83311" stop-color="#FA620C"/>
</linearGradient>
<linearGradient id="paint10_linear_643_2868" x1="13.9349" y1="46.1552" x2="12.5688" y2="65.8985" gradientUnits="userSpaceOnUse">
<stop stop-color="#FFD481"/>
<stop offset="1" stop-color="#FA620C"/>
</linearGradient>
<linearGradient id="paint11_linear_643_2868" x1="57.7503" y1="46.1552" x2="60.1801" y2="65.6908" gradientUnits="userSpaceOnUse">
<stop stop-color="#FFD481"/>
<stop offset="1" stop-color="#FA620C"/>
</linearGradient>
<linearGradient id="paint12_linear_643_2868" x1="28.6471" y1="36.081" x2="27.8883" y2="46.8488" gradientUnits="userSpaceOnUse">
<stop stop-color="#FF9F81"/>
<stop offset="1" stop-color="#F53838"/>
</linearGradient>
<linearGradient id="paint13_linear_643_2868" x1="41.0403" y1="30.9273" x2="40.307" y2="41.3324" gradientUnits="userSpaceOnUse">
<stop stop-color="#FF9F81"/>
<stop offset="1" stop-color="#F53838"/>
</linearGradient>
<linearGradient id="paint14_linear_643_2868" x1="32.5698" y1="22.0977" x2="31.9785" y2="30.4884" gradientUnits="userSpaceOnUse">
<stop stop-color="#FF9F81"/>
<stop offset="1" stop-color="#F53838"/>
</linearGradient>
<linearGradient id="paint15_linear_643_2868" x1="34.708" y1="9.50638" x2="34.708" y2="94.697" gradientUnits="userSpaceOnUse">
<stop stop-color="white" stop-opacity="0"/>
<stop offset="1" stop-color="#FE9277"/>
</linearGradient>
</defs>
</svg>
